<svg aria-label="Nathan Gathright logo" role="img" viewBox="0 0 320 168" xmlns="http://www.w3.org/2000/svg"><path d="M61.3.2c2.5-.6,4.5.5,6.4,1.7,8.244,5.32424,7.65086,12.2457,5.9,21-3.3,12.6-5.8,35.2-5.5,35.5,9.672-15.82684,38.32671-66.23424,51.2-55.2,3.1,3.1,2.5,9.1,1.8,11,0,.4532-5.37643-2.09347-13.2,5.5C95.84936,31.22671,81.76681,53.65808,73.4,68.3c.6.9,1.3,1.9,1.9,2.9A13.99067,13.99067,0,0,1,73.2,87c-1.8,2.1-6.5,5.1-10,5.1-5,0-6.8-2-7.6-6.2a5.78866,5.78866,0,0,1,.3-3.2c.4-1,.7-1.3,1.8-1,3.9.8,11.5.1,11.5-5,0-5.5-4.4-7.8-9-7.8-7.4,0-18.1,5.4-23.7,10.7-23.8059,22.42183-19.11031,48-.6,48,7.3,0,18.5-4.8,21.7-11.6,1.30415-1.95623,2.76684-4.95647,6.2-11.1.1-.1.1-.3.2-.6-2.67935.66983-25.17359,9.49722-33.1,3.4-2.1-2.1-1.6-5.7-1.3-7,.1-.3.6-.4.6-.4.11106.019,3.092.616,5.3.8,13.90367.43448,27.01815-6.00131,36.8-6.7a6.39672,6.39672,0,0,1,6.5,8.2c-2.1,4.7-13.7,26.3-15.5,34-.7,3.1-2.4,9.4-2.5,12.1-2.8-.1-6.6-2.1-8.9-3.6a5.30123,5.30123,0,0,1-2.2-3.7c-1.20795-5.00435,1.80451-10.712,3.9-16.3a37.04565,37.04565,0,0,1-23.8,9C2.2756,134.1.66283,101.86567,15.9,85.2,39.3,59.3,61.5,63,61.5,63s5.2-43.8,5.7-47.2c-2.3,5-20.1,40.3-35.3,51.7C26.1,72.1,23.3,72.4,19,73,5.1,73.3,0,65.4,0,60.9-.737,46.52908,10.71321,39.94188,19,47.4c.7.6.2.8,0,1C11.4,53,8.4,66.6,15,66.6c8.8,0,25.5-23.3,40.6-52C58.23862,9.60051,61.06864.66273,61.3.2ZM175.7,41.6c1.28837-2.89888-1.07334-5.8-4.4-5.8a15.75357,15.75357,0,0,0-9.3,2.9c4.3323-9.74761,17.14539-20.42731,12.4-25.7-1.5-1.6-7-4.1-7.2-2.6-4.71274,10.28235-18.44432,32.50478-21.9,41-2.01794,5.189-2.38338,9.472,2.1,12.7a6.64213,6.64213,0,0,0,4.2,1.1c1.71607,0,.6555-2.53312,1.1-5.2.6-3.7,2.7-8.2,4.5-11.4,4.2-7.4,10.3-9.1,10.1-8.3-1.3,1.4-4.5,8.2-5.8,10.6a23.9626,23.9626,0,0,0-2.6,7.2c-.4,2.4,1.1,6.1,4,6.1,3.59116,0,11.38638-7.95078,12.8-9.6a8.7974,8.7974,0,0,1,.1,1.4c.3,1.9,1.1,7,5.9,7,3.8,0,8.3-5.1,9.2-6,.17179.42948-.58821,6.95379,6.6,4.9,2.2-.7,8.3-5.8,9.7-7.6,0,1.8,1.7,8.3,5.9,8.3,1.53211.47142.73735-.81955,5.1-7,5.07531-7.3592,8.76948-12.23093,17.2-17.5a30.30644,30.30644,0,0,1,4.1-2c-1.4,2-5.9,8.8-7.9,12.4-6.238,11.27643-4.29739,25.40031,9.3,27.1,19.64332,2.51837,32.01405-13.18612,28.5-16.7a11.63165,11.63165,0,0,0-6.4-2.8.8771.8771,0,0,0-1,.6,38.37577,38.37577,0,0,1-3.5,5.7,44.438,44.438,0,0,1-3.7,3.8c-9.567,8.37117-19.44692,3.43287-15.8-6.9a72.58768,72.58768,0,0,1,8.6-17.8c4.1-5.9-.2-10-3.6-10a22.32125,22.32125,0,0,0-7.1,1.7c-3.2,1.4-10,6.4-11.3,7.6-1.23453-4.62945-7.37523-7.54952-8.3-5.7-.1.2-8,13.4-8,13.4-1.60421,1.925-6.98841,8.4-8.9,8.4-3.11147,0,4.66744-11.10875,8-14.6.4-.5.8-.9.6-1.6a5.80131,5.80131,0,0,0-3.8-4.6c-3.67738-1.41437-4.40476,1.4838-6.3,3a8.79324,8.79324,0,0,0-.6-1c-1.6-2.8-7.1-3.2-10.7-1a28.64512,28.64512,0,0,0-11.3,12.8c-.2.4-4,4.6-5.8,6.4C166.79978,59.49565,171.96556,49.89866,175.7,41.6Zm20.2,3c-5.16022,8.25636-6.70818,10.39023-9.3,12.3a1.76893,1.76893,0,0,1-3-1.3c-.36352-2.908,2.05427-7.43,4-9.7C195.48721,36.93723,199.71543,39.19482,195.9,44.6Zm67.4,77.1c1.9-3.9,8.7-16.4,9-18a6.60041,6.60041,0,0,0-1.7-6.1c-5.64428-5.64429-13.09253,1.877-14.9,2.6,0,0,5.4-9.7,7.3-13.2,2.08421-3.72182.62048-8.60349-5.3-9.3-2.02-.18363-2.13812,1.19177-3.4,3.4-2.2,4.2-14.8,29.7-16.3,33.3-2.17487,5.536.48241,9.18462,4.5,12.7,0,0,.6.6.8-.1a84.73211,84.73211,0,0,1,4.6-11.5c6.6-12.9,15.4-15.8,16.1-15.6-3.9,4.6-10,18.6-10.7,20.3-1.2,2.9-.9,4.2,1.3,6.3,1.8,1.7,2.7,1.9,4.9.7,3.9-2,9.3-6.5,13.3-11.4-.08732.3056-3.471,9.44906-3,16.2.49407,7.53473,5.54375,11.3,11.1,11.3.3,0,.2-.6.2-.8-.4-2.2-1.3-3.3-1.1-6.5,0-3.5,2.5-22.8,16.2-37.9.7-.9,9.6,1.4,13.1,1,9.4,0,10.9-7.7,10.9-10,0-.3,0-.7-.9-.3-5.3,2.8-17.3.5-17.6.5,2.8957-4.63313,6.01154-6.37542,5.1-12.3-.8-3.7-5-6-9.2-5-.6,1.5-6.8,13.2-9,16-2.9.3-13.8-2.1-15.9-2.9-.3-.1-1.1-.3-1.2-.2a7.31751,7.31751,0,0,0,2.2,8.7c2.69949,2.0246,5.924,2.198,9.2,2.9-6.83542,12.30378-.31272.5157-5.4,9.6C273.20328,113.61961,263.39444,121.6,263.3,121.7ZM151,97.6c1.47289-3.68228,6.657-14.03309,8.1-17.4.98386-2.24882.6517-6.71317-1.5-7.3a9.99926,9.99926,0,0,0-5.7-.4c-1.9836.49589-1.03106,2.26215-2.3,4.8-8.41219,19.34805-23.2757,42.79461-16.1,47.1a9.16069,9.16069,0,0,0,5.1,1.7c1.4,0,1.9-.3,2.1-1.7,1.07944-7.19618,2.40994-13.9881,8.5-21.2,1.2-1.5,5.4-4.2,6.9-4.4-3.1,5-6.9,13.6-8,18.8a10.62182,10.62182,0,0,0,.3,5.3c1,3.3,5.8,4.6,8.1,3.5,5.34767-2.67383,10.42577-9.50927,12.6-13.4,2.5-4.3,5.2-8.5,7.1-13.1.3-.6.6-1.1,1.3-1.1,1.5-.1,3-.3,4.5-.3a.97323.97323,0,0,1,.7,1.7c-7.3,10.1-11.3,18.5-11.7,20.5-1.24358,6.83977,5.02658,9.422,10.4,5.2,7.27644-5.929,7.81129-6.4668,9.6-8-1.519,7.59536,9.01292,5.95342,9.6,6.2.1-.3-.6-1.7,1.3-6.8,6.30669-15.26887,7.39579-13.36456,8-18.5.3-2.8-4.1-6.5-7-6.1-1.87152.31191.31185,1.20261-4.9,10.4-2.76854,4.84493-4.619,9.28924-5.3,9.8-6.93438,5.7284-7.83215,6.31071-9,6.7-1.61865.53955-2.78781-.987-1.4-3.3,8.62546-13.47723,9.10816-12.09509,9.8-15.9.95622-4.3986-3.30489-6.23659-7.8-6-1.8.1-10.5.9-10.5-2.5.17926-3.58493,3.61527-4.48612,5.9-5.4.25336-3.29349-2.10484-8.83715-7.8-7-2.4.8-4,2.5-5.5,4.5-2.16983,2.89312-2.09471,8.01847,1,11.5a8.53014,8.53014,0,0,0,5.5,2.9c-.1.4-2.5,5.6-3.7,7.9-6.58129,12.28508-12.8,18.60692-12.8,15.1-.1-3.5,6.5-16,7.6-17.8a2.08193,2.08193,0,0,0,.3-1.3,12.29854,12.29854,0,0,0-1.8-4.6c-1.9-2.8-4-3.4-7.1-2.4C153.5,95.5,151.1,97.7,151,97.6Zm65.7,20.5c-.8,0-1.4-.7-1.1-2.5a15.24425,15.24425,0,0,1,4-7.5c7.63613-8.1452,15.70449-8.091,15.1-9.3-1.72793-3.45581-3.4486-6.7-7.3-6.7-7.46143,0-21.5,15.10873-21.5,25.9a6.424,6.424,0,0,0,9.1,6.3c3.30675-1.32269,6.41081-3.80865,8.9-5.8.1.1.2.1.3.2-5.00425,11.885-6.20865,17.4311-14.8,27.8-4.83557,5.80269-16.77156,15.06867-24.3,14.2-13.719-.98-4.65855-17.5569,9.4-19.9,12.97629-2.01853,14.33271,2.1509,15.5.4a9.07676,9.07676,0,0,0,2.1-9.4,3.10145,3.10145,0,0,0-1.4-1.8c-8.59186-6.2217-36.60186,4.29045-41.3,22.3-1.2,4.7,1.6,15.8,14.6,15.8,33.6,0,49.5-43.8,50.6-47.9,2.74361-10.06,4.11315-10.37372,2.9-12.8-1.43094-3.17988-5.29992-4.92009-7.4-2.4C226.4,109.8,221,118.1,216.7,118.1ZM140.1,76a3.64173,3.64173,0,0,0-.3-3.5c-1.69913-2.26553-3.12357-2.32485-6.5-2.7a2.079,2.079,0,0,0-2.2,1.1c-.05392.10014-7.4675,13.59008-10.9,20.1-.4.7-.8,1.1-1.5,1.1-10.44115.37289-11.53418-2.92865-8.7-4.7,3.08731-1.92956,5.16241-.76312,4.9-2.6a11.6206,11.6206,0,0,0-1.5-5.2c-2.27414-3.79025-10.33548-2.046-12.6,2.2a8.40291,8.40291,0,0,0,3.6,11.9c7.437,3.71852,11.225,2.42083,13.5,2.8-.1.4-.1.6-.2.7a72.75845,72.75845,0,0,0-4.5,11.2c-.1529.61159-.32642.47038-6.7,7.8-.2.2-.3.4-.6.5-.3.3-1.1.4-.7-.8.3-.7.5-1.4.8-2.1,2.37117-5.92792,5.8-9.52779,5.8-11.2,0-3.64143-2.54807-5.9-4.1-5.9-2.707,0-4.32475,1.49152-5.6,2.2-1.26211-3.78643-3.72044-4.91325-7.4-4.3-7.42543.82506-16.05239,12.82309-18.2,20.8-.9,3.3.2,9,6.1,9,5.90029,0,10.64331-6.96224,13.1-8.6.46432,2.16681.69444,7.48256,5.7,6.8,3.78756-.71018,4.49353-2.46894,8.9-6.6.2-.2.5-.3.9-.7-.834,7.08906,2.30023,11.85312,10.4,11.6-1.1912-9.52983,7.1386-30.23762,8.6-30.4,1.4-.2,5.3-.9,6.7-1.3A6.21608,6.21608,0,0,0,141,88c-.28364.07925-5.92927,1.75488-7.4,2C133.6,89.555,138.6119,80.46431,140.1,76ZM89,117.6c-2.99494,2.396-4.38759.57271-2.4-3.8,2-4.4,9.3-13.2,14.7-13.2A45.13984,45.13984,0,0,1,89,117.6Zm39.9-51.3c2.4,0,2.1.3,2.8-2.2a79.241,79.241,0,0,1,6.2-17.7c6.20869-12.41743,2.41051-8.39316,12.1-11.3,5.15331-1.21255,4.10086-7.25044,2.8-6.6a18.24845,18.24845,0,0,1-6.1,2c5.75691-10.23458,11.05457-13.93612,10.4-15.9-2.84224-6.09054-6.9-6.51995-9.3-3.8-1.1,1.3-15,21.6-15,21.6s-6,.1-8.5-.7c-3.12664-.78166-2.62041-5.37666,7-5.5.2,0,.5,0,.5-.3,0-.7,0-5.3-2.1-6.8-6.73946-4.96592-16.58184,5.25447-14.5,11.5,2.23789,7.27308,11.08538,6.55139,15.2,7.1-.2.5-3.1,6.9-4.4,9.7-.7,1.4-9.2,8.9-11.3,8.9-2.5907,0,7.2-13.67664,7.2-15-.6-2.4-1.7-4.5-4.4-5-2.2,0-3.6,1.7-4.8,3.1a8.483,8.483,0,0,0-10.2-4.6C91.70753,38.2444,86.46325,52.18091,89,58.1c1.6,4,6.3,4.9,10,2.6a33.78625,33.78625,0,0,0,5.9-5.3,24.76735,24.76735,0,0,0,.3,2.7c.8,3.5,4.4,5.8,7.8,4.1,4.15522-1.88874,8.48577-6.53932,10.7-8.2C122.96213,59.90309,122.95651,66.3,128.9,66.3ZM98.2,56.5c-3.65828,0,4.64564-16.61893,12.3-16.3a.97479.97479,0,0,1,.9.4,1.21091,1.21091,0,0,1-.1,1c-2.1,3.2-4.2,6.4-6.5,9.4C103.8,52.2,99.9,56.5,98.2,56.5Zm56.7,79c-6.63892-.6639-12.92926-1.82105-26.8-.5-9.05687.98444-29.04508,3.52165-28.1,12.5.54895,4.11712,3.72391,7.7,4.3,7.7,10.454-10.454,28.57636-11.51581,45.2-12,4.5-.1,9.1-.5,13.6.8C165.23456,138.58147,160.6467,135.81928,154.9,135.5Zm58.5-49.6a16.7652,16.7652,0,0,1,6.2-6.2,1.45222,1.45222,0,0,0,.6-2.4c-1.46479-2.09257-3.50789-4.89754-6.7-3.9-4.53285,1.33319-5.48361,5.2404-7,9.6-.95206,3.17347,1.72049,5.61717,5.1,6.8C212.245,88.83248,212.6281,87.28944,213.4,85.9Z"/></svg>