<svg id="Layer_1" data-name="Layer 1" xmlns="http://www.w3.org/2000/svg" viewBox="0 0 16 16"><title>refresh</title><circle cx="8" cy="8" r="8"/><path d="M7.995,11.9111a3.5326,3.5326,0,0,0,3.53341-3.543.50015.50015,0,0,0-.49461-.48451.49338.49338,0,0,0-.4946.48451A2.549,2.549,0,1,1,7.995,5.82441a1.69117,1.69117,0,0,1,.41386.04038l-.89837.88827a.464.464,0,0,0-.14132.3432.44611.44611,0,0,0,.45423.45423.43542.43542,0,0,0,.323-.14132L9.73163,5.82441a.522.522,0,0,0,0-.68639L8.16655,3.54317a.46778.46778,0,0,0-.6763.646l.69649.69648a3.07762,3.07762,0,0,0-.323-.02019A3.46864,3.46864,0,0,0,4.452,8.34791,3.53906,3.53906,0,0,0,7.995,11.9111Z" fill="#fff"/></svg>